PathFileType	4	(X/Y/Z)	/Users/mathieubourgeois/Desktop/Analyse/Traitement/Sujet_07/Data/Transformed_Sujet_07_velo_100.trc
DataRate	CameraRate	NumFrames	NumMarkers	Units	OrigDataRate	OrigDataStartFrame	OrigNumFrames
120.000000	120.000000	4	36	mm	120.000000	699	1864
Frame#	Time	RKNE			RKNI			LKNI			LKNE			LANI			LANE			LTOE			LHEE			RHEE			RTOE			RANE			RANI			RFWT			LFWT			RBWT			LBWT			T10			C7			RSHO			LSHO			LWRA			LWRB			RWRA			RWRB			RCAR			LCAR			LHUM			LRAD			RRAD			RHUM			STRN			RFHD			LFHD			RBHD			LBHD			CLAV			
		X1	Y1	Z1	X2	Y2	Z2	X3	Y3	Z3	X4	Y4	Z4	X5	Y5	Z5	X6	Y6	Z6	X7	Y7	Z7	X8	Y8	Z8	X9	Y9	Z9	X10	Y10	Z10	X11	Y11	Z11	X12	Y12	Z12	X13	Y13	Z13	X14	Y14	Z14	X15	Y15	Z15	X16	Y16	Z16	X17	Y17	Z17	X18	Y18	Z18	X19	Y19	Z19	X20	Y20	Z20	X21	Y21	Z21	X22	Y22	Z22	X23	Y23	Z23	X24	Y24	Z24	X25	Y25	Z25	X26	Y26	Z26	X27	Y27	Z27	X28	Y28	Z28	X29	Y29	Z29	X30	Y30	Z30	X31	Y31	Z31	X32	Y32	Z32	X33	Y33	Z33	X34	Y34	Z34	X35	Y35	Z35	X36	Y36	Z36	

700	5.825	-186.9188385009766	741.947998046875	232.1120300292968	-175.6746520996094	682.46240234375	129.2900085449218	-15.00965976715088	903.384033203125	-30.15426826477057	-4.061628341674788	950.9456176757812	-135.3720397949219	-160.5810394287109	552.95263671875	-34.01493453979498	-177.5765533447265	543.7785034179688	-123.0398330688477	22.28943252563478	479.5684814453125	-88.24532318115237	-239.9389495849609	533.9135131835938	-84.85700225830084	-411.2588500976562	328.7658386230469	153.0982971191405	-199.0333862304688	168.5836486816406	177.6162567138672	-357.1370544433594	322.4480590820312	199.1844177246093	-322.7447814941406	328.2333068847656	116.054100036621	-269.3355712890625	1209.130004882812	159.2785797119139	-287.7022705078125	1232.136840820312	-52.88923645019543	-424.2764587402344	1302.15869140625	125.9850997924803	-435.9840087890625	1310.036010742188	13.45601940155016	-169.3671722412109	1506.776977539062	49.77906036376942	78.59948730468749	1470.541748046875	59.42684173583976	78.00751495361325	1424.706787109375	198.0409698486327	108.564682006836	1449.738403320312	-63.42366027832038	317.6085510253906	933.0272827148438	-107.8390884399414	277.9698486328125	888.5487670898438	-156.6858825683594	323.0365295410156	938.0540771484375	252.5449981689453	281.5825195312499	898.1782836914062	301.1296997070312	369.3654174804687	922.8074951171875	343.0344848632812	374.2189636230469	913.1517333984375	-193.8400573730469	103.9361572265625	1129.368286132812	-161.6536712646485	167.2449645996094	1144.069091796875	-175.6460723876953	117.5984649658203	1119.56005859375	289.8082275390624	72.99457550048825	1092.98828125	244.6380920410156	-116.5572814941406	1271.828857421875	41.89552307128897	267.5654907226562	1329.140380859375	170.935317993164	286.0507202148438	1307.931518554688	40.45770645141597	222.1788024902343	1473.810180664062	158.0272216796874	239.3951416015625	1466.550415039062	14.25398635864252	48.9825210571289	1333.959716796875	66.47960662841788	
701	5.833333333333333	-180.4149627685547	746.66259765625	233.0058288574218	-170.3930053710938	687.2178955078125	130.2162628173828	-18.09132194519043	896.4288330078125	-29.55993080139166	-6.756945133209212	944.0596923828125	-134.7754669189454	-151.4256134033203	540.3202514648438	-35.03548812866217	-167.4005126953125	530.49658203125	-124.1542358398438	33.46249771118165	469.759033203125	-87.69269561767581	-229.8118438720703	519.2239379882812	-86.59082794189459	-419.7196655273438	341.9295349121094	154.3866271972655	-210.9918975830078	176.9453125	177.1440124511718	-365.1975708007812	334.209228515625	199.9711456298827	-331.3364562988281	339.2378540039062	116.5027770996093	-270.6741027832031	1209.475952148438	159.0901947021483	-288.3429870605469	1231.838256835938	-52.74168014526379	-425.4265747070312	1302.151611328125	125.688507080078	-436.7280883789062	1309.703247070312	13.24940872192369	-169.8602142333984	1506.567138671875	50.16973876953114	77.87845611572264	1470.10693359375	60.02271270751945	76.87810516357419	1423.291748046875	199.9221954345702	107.9488296508789	1449.10205078125	-62.87171554565437	317.4217224121094	933.1381225585938	-107.8715438842774	277.8871154785156	888.479248046875	-156.6119384765625	322.9596862792968	938.0849609375	252.7599792480468	281.5368041992187	898.1647338867188	301.3521118164062	369.3441162109374	922.7973022460938	343.2182312011719	374.1809997558594	913.1495971679688	-193.7108001708984	103.1992263793945	1128.82958984375	-162.0052642822266	166.4260559082032	1143.639770507812	-176.2313690185547	117.3821029663086	1119.358642578125	290.3183593749999	72.67510986328122	1092.705078125	245.1911468505859	-117.8191986083984	1271.286499023438	42.41247940063467	267.538330078125	1328.873291015625	170.7169494628906	285.4060668945312	1307.601684570312	40.61314773559566	221.5771484375	1473.342895507812	158.3902282714843	238.5655670166016	1466.185180664062	14.56344127655023	48.14806365966796	1333.306884765625	67.17495727539054	
702	5.841666666666667	-173.0908813476563	751.8990478515625	234.007598876953	-164.4454345703125	692.4493408203125	131.1823730468749	-21.15793991088867	887.9100341796875	-29.46251487731939	-9.938643455505355	936.2492065429688	-134.2294006347657	-142.9490356445312	527.1815795898438	-36.07410812377935	-157.8505859375	516.960205078125	-125.253158569336	43.61706542968751	459.0083618164062	-87.31321716308597	-220.3640441894531	504.3122863769531	-88.24887847900396	-427.3953247070312	356.2926635742188	155.9193420410155	-222.007568359375	186.9086761474609	176.7984924316406	-372.4869079589844	347.1187438964844	200.9354400634765	-339.198486328125	351.4851684570312	117.183235168457	-271.829833984375	1209.775146484375	159.5131988525389	-288.878173828125	1231.212280273438	-52.49288177490246	-426.6145935058594	1301.94921875	125.3814544677733	-437.481689453125	1309.169311523438	12.91692161560045	-170.5824584960938	1506.262573242188	50.56791687011707	77.07007598876952	1469.67236328125	60.69089126586906	76.12479400634763	1423.003540039062	200.498077392578	107.2257843017578	1448.47607421875	-62.37753295898445	317.3025512695312	933.3031005859375	-107.8058700561524	277.7763366699219	888.3974609375	-156.5273590087891	322.7838134765624	938.1466064453125	252.9570617675781	281.4151611328124	898.1544189453125	301.5559692382812	369.2388305664062	922.8130493164062	343.3832702636719	374.1097717285156	913.2042236328125	-193.587646484375	102.3706665039063	1128.33203125	-162.2142028808594	165.5062866210938	1143.220703125	-176.6505126953125	116.9627990722656	1119.117919921875	290.8660278320312	72.25888824462888	1092.40869140625	245.7456817626953	-118.9313201904297	1270.948120117188	43.00476074218741	267.0087890625	1328.339477539062	171.0058898925781	284.7059326171875	1307.207397460938	40.84557342529293	220.9907684326172	1472.873413085938	158.7958374023437	237.6697387695312	1465.755737304688	14.96332263946527	47.37987518310546	1332.913818359375	67.84168243408195	
703	5.85	-165.2079467773438	757.5934448242188	235.0796661376952	-158.2128601074219	698.0802612304688	132.2852935791015	-24.89065170288086	878.7769775390625	-28.872148513794	-13.73251533508299	927.4940795898438	-133.7179412841797	-135.2013854980469	513.4735107421875	-37.08950042724614	-149.2425231933593	502.9413452148438	-126.316879272461	53.04099273681641	446.6408081054688	-86.41948699951175	-211.7250366210938	489.1700744628906	-89.80316925048834	-434.0876159667969	371.7913818359375	157.6499481201171	-231.9045715332032	198.3737030029297	176.6473693847656	-378.9375915527344	361.0290222167969	202.113052368164	-346.1024780273438	364.7984313964844	118.138557434082	-272.9396362304688	1209.943359375	159.9054565429686	-289.3629455566406	1230.328979492188	-52.34446334838879	-427.8316040039062	1301.583129882812	125.0471115112303	-438.2213439941406	1308.377197265625	12.55758285522448	-171.3744201660156	1505.8984375	50.82686233520496	76.18766784667967	1469.244262695312	61.44534683227531	75.32206726074216	1422.35595703125	199.8962860107421	106.3866653442383	1447.898315429688	-61.71542739868171	317.0460815429688	933.4052734375	-107.7366409301758	277.5905151367188	888.3699340820312	-156.4374542236328	322.5355224609374	938.2355346679688	253.1204071044922	281.2467041015624	898.1555786132812	301.7518005371094	369.0724487304687	922.8482055664062	343.5461730957031	373.9366149902344	913.30224609375	-193.4486541748047	101.5638656616211	1127.822875976562	-162.1684265136719	164.5769348144532	1142.861938476562	-176.9692077636719	116.4017257690429	1118.793823242188	291.3936462402343	71.71530914306638	1092.108764648438	246.2415313720703	-120.0694732666016	1270.5634765625	43.62566375732413	266.4592590332031	1327.8525390625	171.3030395507812	283.8348388671875	1306.787841796875	41.12763977050777	220.3148345947265	1472.35546875	159.3344268798828	236.7136077880859	1465.342407226562	15.42500209808343	46.6855239868164	1332.62890625	67.39925384521476	
